<?xml version="1.0" encoding="UTF-8" standalone="no"?>
<!-- Created with Inkscape (http://www.inkscape.org/) -->

<svg
   width="181.39258mm"
   height="181.39258mm"
   viewBox="0 0 181.39258 181.39258"
   version="1.1"
   id="svg5"
   inkscape:version="1.1 (c4e8f9e, 2021-05-24)"
   xmlns:inkscape="http://www.inkscape.org/namespaces/inkscape"
   xmlns:sodipodi="http://sodipodi.sourceforge.net/DTD/sodipodi-0.dtd"
   xmlns="http://www.w3.org/2000/svg"
   xmlns:svg="http://www.w3.org/2000/svg">
  <sodipodi:namedview
     id="namedview7"
     pagecolor="#ffffff"
     bordercolor="#666666"
     borderopacity="1.0"
     inkscape:pageshadow="2"
     inkscape:pageopacity="0.0"
     inkscape:pagecheckerboard="0"
     inkscape:document-units="mm"
     showgrid="false"
     inkscape:zoom="0.73228114"
     inkscape:cx="200.74257"
     inkscape:cy="407.63032"
     inkscape:window-width="1920"
     inkscape:window-height="1052"
     inkscape:window-x="1600"
     inkscape:window-y="0"
     inkscape:window-maximized="1"
     inkscape:current-layer="layer1" />
  <defs
     id="defs2" />
  <g
     inkscape:label="Calque 1"
     inkscape:groupmode="layer"
     id="layer1"
     transform="translate(-52.18874,-40.626696)">
    <g
       id="g1352"
       transform="matrix(2.8342591,0,0,2.8342591,52.18874,40.626696)">
      <g
         id="g1161"
         style="fill:#e6e6e6">
        <rect
           x="38"
           y="23"
           width="2"
           height="5"
           id="rect1019"
           style="fill:#000000" />
        <rect
           x="42"
           y="23"
           width="2"
           height="5"
           id="rect1021"
           style="fill:#000000" />
        <rect
           x="38"
           y="30"
           width="2"
           height="2"
           id="rect1023"
           style="fill:#000000" />
        <rect
           x="42"
           y="30"
           width="2"
           height="2"
           id="rect1025"
           style="fill:#000000" />
        <rect
           x="31"
           y="34"
           width="2"
           height="2"
           id="rect1027"
           style="fill:#000000" />
        <rect
           x="26"
           y="54"
           width="2"
           height="2"
           id="rect1029"
           style="fill:#000000" />
        <rect
           x="42"
           y="34"
           width="2"
           height="2"
           id="rect1031"
           style="fill:#000000" />
        <rect
           x="38"
           y="38"
           width="2"
           height="2"
           id="rect1033"
           style="fill:#000000" />
        <rect
           x="42"
           y="38"
           width="2"
           height="2"
           id="rect1035"
           style="fill:#000000" />
        <path
           d="M 2,2 H 5 V 0 H 1 C 0.448,0 0,0.448 0,1 v 4 h 2 z"
           id="path1037"
           style="fill:#000000" />
        <path
           d="m 63,0 h -4 v 2 h 3 v 3 h 2 V 1 C 64,0.448 63.552,0 63,0 Z"
           id="path1039"
           style="fill:#000000" />
        <path
           d="M 2,59 H 0 v 4 c 0,0.552 0.448,1 1,1 H 5 V 62 H 2 Z"
           id="path1041"
           style="fill:#000000" />
        <path
           d="m 62,62 h -3 v 2 h 4 c 0.552,0 1,-0.448 1,-1 v -4 h -2 z"
           id="path1043"
           style="fill:#000000" />
        <path
           d="m 4,5 v 12 c 0,0.552 0.448,1 1,1 h 12 c 0.552,0 1,-0.448 1,-1 V 5 C 18,4.448 17.552,4 17,4 H 5 C 4.448,4 4,4.448 4,5 Z M 6,6 H 16 V 16 H 6 Z"
           id="path1045"
           style="fill:#000000" />
        <path
           d="M 13,8 H 9 C 8.448,8 8,8.448 8,9 v 4 c 0,0.552 0.448,1 1,1 h 4 c 0.552,0 1,-0.448 1,-1 V 9 C 14,8.448 13.552,8 13,8 Z m -1,4 h -2 v -2 h 2 z"
           id="path1047"
           style="fill:#000000" />
        <path
           d="m 47,18 h 12 c 0.552,0 1,-0.448 1,-1 V 5 C 60,4.448 59.552,4 59,4 H 47 c -0.552,0 -1,0.448 -1,1 v 12 c 0,0.552 0.448,1 1,1 z M 48,6 H 58 V 16 H 48 Z"
           id="path1049"
           style="fill:#000000" />
        <path
           d="m 55,8 h -4 c -0.552,0 -1,0.448 -1,1 v 4 c 0,0.552 0.448,1 1,1 h 4 c 0.552,0 1,-0.448 1,-1 V 9 C 56,8.448 55.552,8 55,8 Z m -1,4 h -2 v -2 h 2 z"
           id="path1051"
           style="fill:#000000" />
        <path
           d="M 17,46 H 5 c -0.552,0 -1,0.448 -1,1 v 12 c 0,0.552 0.448,1 1,1 h 12 c 0.552,0 1,-0.448 1,-1 V 47 c 0,-0.552 -0.448,-1 -1,-1 z M 16,58 H 6 V 48 h 10 z"
           id="path1053"
           style="fill:#000000" />
        <path
           d="m 9,56 h 4 c 0.552,0 1,-0.448 1,-1 v -4 c 0,-0.552 -0.448,-1 -1,-1 H 9 c -0.552,0 -1,0.448 -1,1 v 4 c 0,0.552 0.448,1 1,1 z m 1,-4 h 2 v 2 h -2 z"
           id="path1055"
           style="fill:#000000" />
        <path
           d="M 44,19 H 37 V 7 h -2 v 13 c 0,0.552 0.448,1 1,1 h 8 z"
           id="path1057"
           style="fill:#000000" />
        <rect
           x="22"
           y="12"
           width="7"
           height="2"
           id="rect1059"
           style="fill:#000000" />
        <rect
           x="26"
           y="8"
           width="7"
           height="2"
           id="rect1061"
           style="fill:#000000" />
        <rect
           x="4"
           y="19"
           width="2"
           height="9"
           id="rect1063"
           style="fill:#000000" />
        <path
           d="M 18,25 H 8 v 2 h 9 v 4 h 2 v -5 c 0,-0.552 -0.448,-1 -1,-1 z"
           id="path1065"
           style="fill:#000000" />
        <rect
           x="9"
           y="20"
           width="2"
           height="2"
           id="rect1067"
           style="fill:#000000" />
        <rect
           x="21"
           y="18"
           width="2"
           height="8"
           id="rect1069"
           style="fill:#000000" />
        <rect
           x="21"
           y="28"
           width="9"
           height="2"
           id="rect1071"
           style="fill:#000000" />
        <path
           d="m 61,29 h -2 v 10 h -3 v 2 h 4 c 0.552,0 1,-0.448 1,-1 z"
           id="path1073"
           style="fill:#000000" />
        <rect
           x="26"
           y="18"
           width="2"
           height="2"
           id="rect1075"
           style="fill:#000000" />
        <rect
           x="4"
           y="33"
           width="2"
           height="8"
           id="rect1077"
           style="fill:#000000" />
        <rect
           x="4"
           y="42"
           width="9"
           height="2"
           id="rect1079"
           style="fill:#000000" />
        <path
           d="m 50,28 h 2 v -4 c 0,-0.552 -0.448,-1 -1,-1 h -5 v 2 h 4 z"
           id="path1081"
           style="fill:#000000" />
        <rect
           x="9"
           y="33"
           width="2"
           height="2"
           id="rect1083"
           style="fill:#000000" />
        <rect
           x="20"
           y="32"
           width="2"
           height="8"
           id="rect1085"
           style="fill:#000000" />
        <rect
           x="20"
           y="42"
           width="9"
           height="2"
           id="rect1087"
           style="fill:#000000" />
        <rect
           x="8"
           y="38"
           width="9"
           height="2"
           id="rect1089"
           style="fill:#000000" />
        <rect
           x="21"
           y="52"
           width="2"
           height="4"
           id="rect1091"
           style="fill:#000000" />
        <rect
           x="20"
           y="48"
           width="9"
           height="2"
           id="rect1093"
           style="fill:#000000" />
        <path
           d="m 36,44 v -5 c 0,-0.552 -0.448,-1 -1,-1 H 25 v 2 h 9 v 4 z"
           id="path1095"
           style="fill:#000000" />
        <rect
           x="26"
           y="32"
           width="2"
           height="2"
           id="rect1097"
           style="fill:#000000" />
        <rect
           x="15"
           y="34"
           width="2"
           height="2"
           id="rect1099"
           style="fill:#000000" />
        <rect
           x="59"
           y="53"
           width="2"
           height="7"
           id="rect1101"
           style="fill:#000000" />
        <rect
           x="54"
           y="58"
           width="3"
           height="2"
           id="rect1103"
           style="fill:#000000" />
        <rect
           x="54"
           y="52"
           width="2"
           height="4"
           id="rect1105"
           style="fill:#000000" />
        <path
           d="m 61,44 c 0,-0.552 -0.448,-1 -1,-1 H 49 v 2 h 10 v 6 h 2 z"
           id="path1107"
           style="fill:#000000" />
        <path
           d="m 48,56 v -5 c 0,-0.552 -0.448,-1 -1,-1 H 36 v 2 h 10 v 4 z"
           id="path1109"
           style="fill:#000000" />
        <rect
           x="50"
           y="47"
           width="7"
           height="2"
           id="rect1111"
           style="fill:#000000" />
        <rect
           x="20"
           y="58"
           width="7"
           height="2"
           id="rect1113"
           style="fill:#000000" />
        <rect
           x="30"
           y="51"
           width="2"
           height="9"
           id="rect1115"
           style="fill:#000000" />
        <rect
           x="32"
           y="46"
           width="4"
           height="2"
           id="rect1117"
           style="fill:#000000" />
        <path
           d="m 47,36 h 5 v -2 h -4 v -6 h -2 v 7 c 0,0.552 0.448,1 1,1 z"
           id="path1119"
           style="fill:#000000" />
        <rect
           x="50"
           y="30"
           width="5"
           height="2"
           id="rect1121"
           style="fill:#000000" />
        <rect
           x="54"
           y="20"
           width="3"
           height="2"
           id="rect1123"
           style="fill:#000000" />
        <rect
           x="59"
           y="20"
           width="2"
           height="5"
           id="rect1125"
           style="fill:#000000" />
        <rect
           x="54"
           y="25"
           width="2"
           height="2"
           id="rect1127"
           style="fill:#000000" />
        <path
           d="m 39,17 h 4 c 0.552,0 1,-0.448 1,-1 V 3 h -2 v 12 h -3 z"
           id="path1129"
           style="fill:#000000" />
        <path
           d="M 24,5 H 39 V 3 H 23 c -0.552,0 -1,0.448 -1,1 v 5 h 2 z"
           id="path1131"
           style="fill:#000000" />
        <path
           d="m 25,24 h 7 c 0.552,0 1,-0.448 1,-1 v -8 h -2 v 7 h -6 z"
           id="path1133"
           style="fill:#000000" />
        <rect
           x="34"
           y="23"
           width="2"
           height="4"
           id="rect1135"
           style="fill:#000000" />
        <rect
           x="36"
           y="54"
           width="7"
           height="2"
           id="rect1137"
           style="fill:#000000" />
        <rect
           x="36"
           y="58"
           width="9"
           height="2"
           id="rect1139"
           style="fill:#000000" />
        <path
           d="m 50,58 h -2 v 2 h 3 c 0.552,0 1,-0.448 1,-1 v -8 h -2 z"
           id="path1141"
           style="fill:#000000" />
        <rect
           x="16"
           y="42"
           width="2"
           height="2"
           id="rect1143"
           style="fill:#000000" />
        <rect
           x="39"
           y="42"
           width="4"
           height="2"
           id="rect1145"
           style="fill:#000000" />
        <rect
           x="46"
           y="38"
           width="2"
           height="3"
           id="rect1147"
           style="fill:#000000" />
        <rect
           x="45"
           y="43"
           width="2"
           height="2"
           id="rect1149"
           style="fill:#000000" />
        <rect
           x="39"
           y="46"
           width="3"
           height="2"
           id="rect1151"
           style="fill:#000000" />
        <rect
           x="50"
           y="38"
           width="2"
           height="2"
           id="rect1153"
           style="fill:#000000" />
        <rect
           x="54"
           y="34"
           width="3"
           height="2"
           id="rect1155"
           style="fill:#000000" />
        <rect
           x="35"
           y="34"
           width="5"
           height="2"
           id="rect1157"
           style="fill:#000000" />
        <rect
           x="34"
           y="29"
           width="2"
           height="3"
           id="rect1159"
           style="fill:#000000" />
      </g>
      <g
         id="g1163" />
      <g
         id="g1165" />
      <g
         id="g1167" />
      <g
         id="g1169" />
      <g
         id="g1171" />
      <g
         id="g1173" />
      <g
         id="g1175" />
      <g
         id="g1177" />
      <g
         id="g1179" />
      <g
         id="g1181" />
      <g
         id="g1183" />
      <g
         id="g1185" />
      <g
         id="g1187" />
      <g
         id="g1189" />
      <g
         id="g1191" />
    </g>
  </g>
</svg>
